<svg xmlns="http://www.w3.org/2000/svg" xmlns:xlink="http://www.w3.org/1999/xlink"><symbol id="insta"><path d="M16 7a1 1 0 1 1 2 0 1 1 0 0 1-2 0Z" fill="#000"/><path fill-rule="evenodd" clip-rule="evenodd" d="M12 7.25a4.75 4.75 0 1 0 0 9.5 4.75 4.75 0 0 0 0-9.5ZM8.75 12a3.25 3.25 0 1 1 6.5 0 3.25 3.25 0 0 1-6.5 0Z" fill="#000"/><path fill-rule="evenodd" clip-rule="evenodd" d="M17.258 2.833a47.721 47.721 0 0 0-10.516 0c-2.012.225-3.637 1.81-3.873 3.832a45.922 45.922 0 0 0 0 10.67c.236 2.022 1.86 3.607 3.873 3.832 3.466.387 7.05.387 10.516 0 2.012-.225 3.637-1.81 3.873-3.832a45.914 45.914 0 0 0 0-10.67c-.236-2.022-1.86-3.607-3.873-3.832Zm-10.35 1.49a46.22 46.22 0 0 1 10.184 0c1.33.15 2.395 1.199 2.55 2.517a44.421 44.421 0 0 1 0 10.32c-.155 1.318-1.22 2.368-2.55 2.516a46.217 46.217 0 0 1-10.184 0c-1.33-.148-2.395-1.198-2.55-2.516a44.421 44.421 0 0 1 0-10.32c.155-1.318 1.22-2.368 2.55-2.516Z" fill="#000"/></symbol><symbol id="telegram"><path fill-rule="evenodd" clip-rule="evenodd" d="M5.788 14.02a.746.746 0 0 0 .132.031 456.056 456.056 0 0 1 .844 2.002c.503 1.202 1.01 2.44 1.121 2.796.139.438.285.736.445.94.083.104.178.196.29.266a.88.88 0 0 0 .186.088c.32.12.612.07.795.009a1.313 1.313 0 0 0 .304-.15L9.91 20l2.826-1.762 3.265 2.502c.048.037.1.068.156.093.392.17.772.23 1.13.182.356-.05.639-.199.85-.368a1.992 1.992 0 0 0 .564-.728l.009-.022.003-.008.002-.004v-.002l.001-.001a.756.756 0 0 0 .04-.133l2.98-15.025a.752.752 0 0 0 .014-.146c0-.44-.166-.859-.555-1.112-.334-.217-.705-.227-.94-.209-.252.02-.486.082-.643.132a3.458 3.458 0 0 0-.26.094l-.011.005-16.714 6.556-.002.001a2.296 2.296 0 0 0-.167.069 2.522 2.522 0 0 0-.38.212c-.227.155-.75.581-.661 1.285.07.56.454.905.689 1.071.128.091.25.156.34.199.04.02.126.054.163.07l.01.003 3.169 1.067Zm14.138-9.152h-.002a.785.785 0 0 1-.026.011L3.164 11.444a.818.818 0 0 1-.026.01l-.01.003a1.126 1.126 0 0 0-.09.04.851.851 0 0 0 .086.043l3.142 1.058a.75.75 0 0 1 .16.076l10.377-6.075.01-.005a1.59 1.59 0 0 1 .124-.068c.072-.037.187-.091.317-.131.09-.028.357-.107.645-.014a.854.854 0 0 1 .588.689.84.84 0 0 1 .003.424c-.07.275-.262.489-.438.653-.15.14-2.095 2.016-4.014 3.868l-2.613 2.52-.465.45 5.872 4.502a.536.536 0 0 0 .251.04.229.229 0 0 0 .117-.052.495.495 0 0 0 .103-.12l.002-.001 2.89-14.573a1.858 1.858 0 0 0-.267.086h-.002Zm-8.461 12.394-1.172-.898-.284 1.805 1.456-.907Zm-2.247-2.68 1.165-1.125 2.613-2.522.973-.938-6.52 3.817.035.082a339.2 339.2 0 0 1 1.22 2.92l.283-1.8a.747.747 0 0 1 .231-.435Z" fill="#000"/></symbol><symbol id="vk"><path fill-rule="evenodd" clip-rule="evenodd" d="M23.405 16.865a11.394 11.394 0 0 0-2.123-2.964 15.527 15.527 0 0 0-.905-.94l-.038-.037a18.573 18.573 0 0 1-.346-.345 29.72 29.72 0 0 0 3.01-5.237l.033-.074.023-.078c.109-.363.233-1.053-.207-1.677-.456-.644-1.185-.76-1.674-.76h-2.247a2.232 2.232 0 0 0-2.19 1.442 17.506 17.506 0 0 1-1.806 3.271V6.833c0-.34-.032-.91-.397-1.39-.436-.576-1.067-.69-1.505-.69H9.467a1.813 1.813 0 0 0-1.85 1.682l-.003.045v.045c0 .485.192.843.346 1.068.069.101.142.193.189.251l.01.013c.05.062.083.103.116.149.088.118.213.302.249.776v1.473a19.785 19.785 0 0 1-1.751-3.792l-.008-.022-.008-.021c-.122-.319-.317-.783-.708-1.137-.456-.415-.996-.53-1.487-.53h-2.28c-.497 0-1.096.116-1.543.587C.3 5.804.25 6.36.25 6.654v.134l.028.13a19.43 19.43 0 0 0 3.801 8.02 10.151 10.151 0 0 0 7.893 4.692l.041.003h.042c.726 0 1.483-.063 2.052-.442.767-.512.828-1.297.828-1.689v-1.138c.197.16.441.374.74.662.362.362.65.676.897.95l.132.146c.192.214.381.425.553.598.216.217.483.456.817.633.363.191.744.278 1.148.278h2.281c.481 0 1.17-.114 1.655-.676.528-.612.488-1.363.322-1.902l-.03-.097-.045-.091Zm-5.72.106a26.137 26.137 0 0 0-.957-1.014l-.003-.003c-1.357-1.308-1.99-1.535-2.438-1.535-.239 0-.502.026-.673.24a.774.774 0 0 0-.147.348 2.452 2.452 0 0 0-.032.444v2.051c0 .255-.042.362-.16.44-.157.105-.492.19-1.211.19a8.65 8.65 0 0 1-6.752-4.052l-.008-.013-.01-.012A17.93 17.93 0 0 1 1.75 6.63c.004-.13.032-.209.078-.257.047-.05.162-.12.454-.12h2.28c.253 0 .385.056.48.141.106.098.2.263.312.557.56 1.646 1.316 3.186 2.033 4.317.358.566.71 1.037 1.028 1.37.159.166.314.304.463.402.143.094.306.169.474.169.088 0 .191-.01.29-.053a.523.523 0 0 0 .25-.232c.103-.188.132-.465.132-.828V8.723c-.053-.818-.3-1.279-.54-1.606a5.66 5.66 0 0 0-.15-.193l-.013-.016a2.694 2.694 0 0 1-.122-.16.39.39 0 0 1-.085-.214.313.313 0 0 1 .324-.282h3.595c.206 0 .275.05.31.097.05.065.092.2.092.484v4.528c0 .538.248.902.608.902.414 0 .713-.251 1.235-.773l.009-.01.008-.009a19.01 19.01 0 0 0 2.84-4.722l.004-.012a.732.732 0 0 1 .74-.485h2.3c.312 0 .414.08.448.127.035.05.06.157 0 .367a28.216 28.216 0 0 1-3.029 5.2l-.008.012c-.115.177-.242.373-.26.597-.02.242.084.461.267.697.133.196.408.465.687.738l.026.026c.292.286.609.596.863.896l.007.007.007.008a9.892 9.892 0 0 1 1.865 2.586c.076.26.03.394-.03.463-.069.08-.224.155-.518.155h-2.282a.91.91 0 0 1-.447-.105 1.96 1.96 0 0 1-.454-.364c-.143-.143-.298-.316-.488-.527l-.147-.164Z" fill="#000"/></symbol></svg>